STARTFONT 2.1
COMMENT 
FONT Keihansoukaishi-Numbers-96
SIZE 96 96 96
FONTBOUNDINGBOX 48 95 0 111
STARTPROPERTIES 6
COPYRIGHT ""
RESOLUTION_X 96
RESOLUTION_Y 96
FONT_ASCENT 207
FONT_DESCENT -111
DEFAULT_CHAR 0
ENDPROPERTIES
CHARS 26
STARTCHAR 032
ENCODING 32
SWIDTH 3456 0
DWIDTH 48 0
BBX 0 0 0 0
BITMAP
ENDCHAR
STARTCHAR 033
ENCODING 33
SWIDTH 3456 0
DWIDTH 48 0
BBX 0 0 0 0
BITMAP
ENDCHAR
STARTCHAR 034
ENCODING 34
SWIDTH 3456 0
DWIDTH 48 0
BBX 0 0 0 0
BITMAP
ENDCHAR
STARTCHAR 035
ENCODING 35
SWIDTH 3456 0
DWIDTH 48 0
BBX 0 0 0 0
BITMAP
ENDCHAR
STARTCHAR 036
ENCODING 36
SWIDTH 3456 0
DWIDTH 48 0
BBX 0 0 0 0
BITMAP
ENDCHAR
STARTCHAR 037
ENCODING 37
SWIDTH 3456 0
DWIDTH 48 0
BBX 0 0 0 0
BITMAP
ENDCHAR
STARTCHAR 038
ENCODING 38
SWIDTH 3456 0
DWIDTH 48 0
BBX 0 0 0 0
BITMAP
ENDCHAR
STARTCHAR 039
ENCODING 39
SWIDTH 3456 0
DWIDTH 48 0
BBX 0 0 0 0
BITMAP
ENDCHAR
STARTCHAR 040
ENCODING 40
SWIDTH 3456 0
DWIDTH 48 0
BBX 0 0 0 0
BITMAP
ENDCHAR
STARTCHAR 041
ENCODING 41
SWIDTH 3456 0
DWIDTH 48 0
BBX 0 0 0 0
BITMAP
ENDCHAR
STARTCHAR 042
ENCODING 42
SWIDTH 3456 0
DWIDTH 48 0
BBX 0 0 0 0
BITMAP
ENDCHAR
STARTCHAR 043
ENCODING 43
SWIDTH 3456 0
DWIDTH 48 0
BBX 0 0 0 0
BITMAP
ENDCHAR
STARTCHAR 044
ENCODING 44
SWIDTH 3456 0
DWIDTH 48 0
BBX 0 0 0 0
BITMAP
ENDCHAR
STARTCHAR 045
ENCODING 45
SWIDTH 3456 0
DWIDTH 48 0
BBX 0 0 0 0
BITMAP
ENDCHAR
STARTCHAR 046
ENCODING 46
SWIDTH 3456 0
DWIDTH 48 0
BBX 0 0 0 0
BITMAP
ENDCHAR
STARTCHAR 047
ENCODING 47
SWIDTH 3456 0
DWIDTH 48 0
BBX 0 0 0 0
BITMAP
ENDCHAR
STARTCHAR 048
ENCODING 48
SWIDTH 3456 0
DWIDTH 48 0
BBX 45 71 2 118
BITMAP
FFFFFFFFFFF8
FFFFFFFFFFF8
FFFFFFFFFFF8
000000000000
000000000000
000000000000
000000000000
000000000000
000000000000
000000000000
000000000000
000000000000
000000000000
000000000000
000000000000
000000000000
000000000000
000000000000
000000000000
000000000000
000000000000
000000000000
000000000000
FFFFFFFFFFF8
FFFFFFFFFFF8
FFFFFFFFFFF8
000000000000
00001F800000
00001F800000
00003FE00000
0000FFF00000
0000FFF00000
0001FFFC0000
0007F8FE0000
0007F8FE0000
0007F8FE0000
0007F8FE0000
0007F8FE0000
0001FFFC0000
0000FFF00000
0000FFF00000
00003FE00000
00001F800000
00001F800000
000000000000
FFFFFFFFFFF8
FFFFFFFFFFF8
FFFFFFFFFFF8
000000000000
000000000000
000000000000
000000000000
000000000000
000000000000
000000000000
000000000000
000000000000
000000000000
000000000000
000000000000
000000000000
000000000000
000000000000
000000000000
000000000000
000000000000
000000000000
000000000000
FFFFFFFFFFF8
FFFFFFFFFFF8
FFFFFFFFFFF8
ENDCHAR
STARTCHAR 049
ENCODING 49
SWIDTH 3456 0
DWIDTH 48 0
BBX 45 78 2 111
BITMAP
FFFFFFFFFFF8
FFFFFFFFFFF8
FFFFFFFFFFF8
000000000000
000000000000
000000000000
000000000000
000000000000
000000000000
000000000000
000000000000
000000000000
000000000000
000000000000
000000000000
000000000000
000000000000
000000000000
000000000000
000000000000
000000000000
000000000000
000000000000
FFFFFFFFFFF8
FFFFFFFFFFF8
FFFFFFFFFFF8
000000000000
000000000000
000000000000
000000000000
000000000000
000000000000
000000000000
000000000000
000000000000
000000000000
000000000000
000000000000
000000000000
000000000000
000000000000
000000000000
000000000000
000000000000
000000000000
FFFFFFFFFFF8
FFFFFFFFFFF8
FFFFFFFFFFF8
000000000000
000000000000
000000000000
000000000000
000000000000
000000000000
000000000000
000000000000
000000000000
000000000000
000000000000
000000000000
00001F800000
00001F800000
00003FE00000
0000FFF00000
0000FFF00000
0001FFFC0000
0007FFFE0000
0007FFFE0000
FFFFFFFFFFF8
FFFFFFFFFFF8
FFFFFFFFFFF8
0007FFFE0000
0001FFFC0000
0001FFFC0000
0000FFF00000
00003FE00000
00003FE00000
00001F800000
ENDCHAR
STARTCHAR 050
ENCODING 50
SWIDTH 3456 0
DWIDTH 48 0
BBX 45 71 2 118
BITMAP
FFFFFFFFFFF8
FFFFFFFFFFF8
FFFFFFFFFFF8
000000000000
000000000000
000000000000
000000000000
000000000000
000000000000
000000000000
000000000000
000000000000
000000000000
000000000000
000000000000
000000000000
000000000000
000000000000
000000000000
000000000000
000000000000
000000000000
000000000000
FFFFFFFFFFF8
FFFFFFFFFFF8
FFFFFFFFFFF8
000000000000
000000000000
000000000000
000000000000
000000000000
000000000000
000000000000
000000000000
000000000000
000000000000
000000000000
000000000000
00001F800000
00003FE00000
00003FE00000
0000FFF00000
0001FFFC0000
0001FFFC0000
0007FFFE0000
FFFFFFFFFFF8
FFFFFFFFFFF8
FFFFFFFFFFF8
0007FFFE0000
0007FFFE0000
0001FFFC0000
0000FFF00000
0000FFF00000
00003FE00000
00001F800000
00001F800000
000000000000
000000000000
000000000000
000000000000
000000000000
000000000000
000000000000
000000000000
000000000000
000000000000
000000000000
000000000000
FFFFFFFFFFF8
FFFFFFFFFFF8
FFFFFFFFFFF8
ENDCHAR
STARTCHAR 051
ENCODING 51
SWIDTH 3456 0
DWIDTH 48 0
BBX 45 78 2 111
BITMAP
FFFFFFFFFFF8
FFFFFFFFFFF8
FFFFFFFFFFF8
000000000000
000000000000
000000000000
000000000000
000000000000
000000000000
000000000000
000000000000
000000000000
000000000000
000000000000
000000000000
000000000000
000000000000
000000000000
000000000000
000000000000
000000000000
000000000000
000000000000
FFFFFFFFFFF8
FFFFFFFFFFF8
FFFFFFFFFFF8
000000000000
000000000000
000000000000
000000000000
000000000000
000000000000
000000000000
000000000000
000000000000
000000000000
000000000000
000000000000
00001F800000
00003FE00000
00003FE00000
0000FFF00000
0001FFFC0000
0001FFFC0000
0007FFFE0000
FFFFFFFFFFF8
FFFFFFFFFFF8
FFFFFFFFFFF8
0007FFFE0000
0007FFFE0000
0001FFFC0000
0000FFF00000
0000FFF00000
00003FE00000
00001F800000
00001F800000
000000000000
000000000000
000000000000
000000000000
00001F800000
00001F800000
00003FE00000
0000FFF00000
0000FFF00000
0001FFFC0000
0007FFFE0000
0007FFFE0000
FFFFFFFFFFF8
FFFFFFFFFFF8
FFFFFFFFFFF8
0007FFFE0000
0001FFFC0000
0001FFFC0000
0000FFF00000
00003FE00000
00003FE00000
00001F800000
ENDCHAR
STARTCHAR 052
ENCODING 52
SWIDTH 3456 0
DWIDTH 48 0
BBX 45 71 2 118
BITMAP
FFFFFFFFFFF8
FFFFFFFFFFF8
FFFFFFFFFFF8
000000000000
000000000000
000000000000
000000000000
000000000000
000000000000
000000000000
000000000000
000000000000
000000000000
000000000000
000000000000
00001F800000
00001F800000
00003FE00000
0000FFF00000
0000FFF00000
0001FFFC0000
0007FFFE0000
0007FFFE0000
FFFFFFFFFFF8
FFFFFFFFFFF8
FFFFFFFFFFF8
0007FFFE0000
0001FFFC0000
0001FFFC0000
0000FFF00000
00003FE00000
00003FE00000
00001F800000
000000000000
000000000000
000000000000
000000000000
000000000000
000000000000
000000000000
000000000000
000000000000
000000000000
000000000000
000000000000
FFFFFFFFFFF8
FFFFFFFFFFF8
FFFFFFFFFFF8
000000000000
000000000000
000000000000
000000000000
000000000000
000000000000
000000000000
000000000000
000000000000
000000000000
000000000000
000000000000
000000000000
000000000000
000000000000
000000000000
000000000000
000000000000
000000000000
000000000000
FFFFFFFFFFF8
FFFFFFFFFFF8
FFFFFFFFFFF8
ENDCHAR
STARTCHAR 053
ENCODING 53
SWIDTH 3456 0
DWIDTH 48 0
BBX 45 78 2 111
BITMAP
FFFFFFFFFFF8
FFFFFFFFFFF8
FFFFFFFFFFF8
000000000000
000000000000
000000000000
000000000000
000000000000
000000000000
000000000000
000000000000
000000000000
000000000000
000000000000
000000000000
00001F800000
00001F800000
00003FE00000
0000FFF00000
0000FFF00000
0001FFFC0000
0007FFFE0000
0007FFFE0000
FFFFFFFFFFF8
FFFFFFFFFFF8
FFFFFFFFFFF8
0007FFFE0000
0001FFFC0000
0001FFFC0000
0000FFF00000
00003FE00000
00003FE00000
00001F800000
000000000000
000000000000
000000000000
000000000000
000000000000
000000000000
000000000000
000000000000
000000000000
000000000000
000000000000
000000000000
FFFFFFFFFFF8
FFFFFFFFFFF8
FFFFFFFFFFF8
000000000000
000000000000
000000000000
000000000000
000000000000
000000000000
000000000000
000000000000
000000000000
000000000000
000000000000
000000000000
00001F800000
00001F800000
00003FE00000
0000FFF00000
0000FFF00000
0001FFFC0000
0007FFFE0000
0007FFFE0000
FFFFFFFFFFF8
FFFFFFFFFFF8
FFFFFFFFFFF8
0007FFFE0000
0001FFFC0000
0001FFFC0000
0000FFF00000
00003FE00000
00003FE00000
00001F800000
ENDCHAR
STARTCHAR 054
ENCODING 54
SWIDTH 3456 0
DWIDTH 48 0
BBX 45 71 2 118
BITMAP
FFFFFFFFFFF8
FFFFFFFFFFF8
FFFFFFFFFFF8
000000000000
000000000000
000000000000
000000000000
000000000000
000000000000
000000000000
000000000000
000000000000
000000000000
000000000000
000000000000
00001F800000
00001F800000
00003FE00000
0000FFF00000
0000FFF00000
0001FFFC0000
0007FFFE0000
0007FFFE0000
FFFFFFFFFFF8
FFFFFFFFFFF8
FFFFFFFFFFF8
0007FFFE0000
0001FFFC0000
0001FFFC0000
0000FFF00000
00003FE00000
00003FE00000
00001F800000
000000000000
000000000000
000000000000
000000000000
000000000000
00001F800000
00003FE00000
00003FE00000
0000FFF00000
0001FFFC0000
0001FFFC0000
0007FFFE0000
FFFFFFFFFFF8
FFFFFFFFFFF8
FFFFFFFFFFF8
0007FFFE0000
0007FFFE0000
0001FFFC0000
0000FFF00000
0000FFF00000
00003FE00000
00001F800000
00001F800000
000000000000
000000000000
000000000000
000000000000
000000000000
000000000000
000000000000
000000000000
000000000000
000000000000
000000000000
000000000000
FFFFFFFFFFF8
FFFFFFFFFFF8
FFFFFFFFFFF8
ENDCHAR
STARTCHAR 055
ENCODING 55
SWIDTH 3456 0
DWIDTH 48 0
BBX 45 78 2 111
BITMAP
FFFFFFFFFFF8
FFFFFFFFFFF8
FFFFFFFFFFF8
000000000000
000000000000
000000000000
000000000000
000000000000
000000000000
000000000000
000000000000
000000000000
000000000000
000000000000
000000000000
00001F800000
00001F800000
00003FE00000
0000FFF00000
0000FFF00000
0001FFFC0000
0007FFFE0000
0007FFFE0000
FFFFFFFFFFF8
FFFFFFFFFFF8
FFFFFFFFFFF8
0007FFFE0000
0001FFFC0000
0001FFFC0000
0000FFF00000
00003FE00000
00003FE00000
00001F800000
000000000000
000000000000
000000000000
000000000000
000000000000
00001F800000
00003FE00000
00003FE00000
0000FFF00000
0001FFFC0000
0001FFFC0000
0007FFFE0000
FFFFFFFFFFF8
FFFFFFFFFFF8
FFFFFFFFFFF8
0007FFFE0000
0007FFFE0000
0001FFFC0000
0000FFF00000
0000FFF00000
00003FE00000
00001F800000
00001F800000
000000000000
000000000000
000000000000
000000000000
00001F800000
00001F800000
00003FE00000
0000FFF00000
0000FFF00000
0001FFFC0000
0007FFFE0000
0007FFFE0000
FFFFFFFFFFF8
FFFFFFFFFFF8
FFFFFFFFFFF8
0007FFFE0000
0001FFFC0000
0001FFFC0000
0000FFF00000
00003FE00000
00003FE00000
00001F800000
ENDCHAR
STARTCHAR 056
ENCODING 56
SWIDTH 3456 0
DWIDTH 48 0
BBX 45 78 2 118
BITMAP
00001F800000
00003FE00000
00003FE00000
0000FFF00000
0001FFFC0000
0001FFFC0000
0007FFFE0000
FFFFFFFFFFF8
FFFFFFFFFFF8
FFFFFFFFFFF8
0007FFFE0000
0007FFFE0000
0001FFFC0000
0000FFF00000
0000FFF00000
00003FE00000
00001F800000
00001F800000
000000000000
000000000000
000000000000
000000000000
000000000000
000000000000
000000000000
000000000000
000000000000
000000000000
000000000000
000000000000
FFFFFFFFFFF8
FFFFFFFFFFF8
FFFFFFFFFFF8
000000000000
000000000000
000000000000
000000000000
000000000000
000000000000
000000000000
000000000000
000000000000
000000000000
000000000000
000000000000
000000000000
000000000000
000000000000
000000000000
000000000000
000000000000
000000000000
FFFFFFFFFFF8
FFFFFFFFFFF8
FFFFFFFFFFF8
000000000000
000000000000
000000000000
000000000000
000000000000
000000000000
000000000000
000000000000
000000000000
000000000000
000000000000
000000000000
000000000000
000000000000
000000000000
000000000000
000000000000
000000000000
000000000000
000000000000
FFFFFFFFFFF8
FFFFFFFFFFF8
FFFFFFFFFFF8
ENDCHAR
STARTCHAR 057
ENCODING 57
SWIDTH 3456 0
DWIDTH 48 0
BBX 45 85 2 111
BITMAP
00001F800000
00003FE00000
00003FE00000
0000FFF00000
0001FFFC0000
0001FFFC0000
0007FFFE0000
FFFFFFFFFFF8
FFFFFFFFFFF8
FFFFFFFFFFF8
0007FFFE0000
0007FFFE0000
0001FFFC0000
0000FFF00000
0000FFF00000
00003FE00000
00001F800000
00001F800000
000000000000
000000000000
000000000000
000000000000
000000000000
000000000000
000000000000
000000000000
000000000000
000000000000
000000000000
000000000000
FFFFFFFFFFF8
FFFFFFFFFFF8
FFFFFFFFFFF8
000000000000
000000000000
000000000000
000000000000
000000000000
000000000000
000000000000
000000000000
000000000000
000000000000
000000000000
000000000000
000000000000
000000000000
000000000000
000000000000
000000000000
000000000000
000000000000
FFFFFFFFFFF8
FFFFFFFFFFF8
FFFFFFFFFFF8
000000000000
000000000000
000000000000
000000000000
000000000000
000000000000
000000000000
000000000000
000000000000
000000000000
000000000000
000000000000
00001F800000
00001F800000
00003FE00000
0000FFF00000
0000FFF00000
0001FFFC0000
0007FFFE0000
0007FFFE0000
FFFFFFFFFFF8
FFFFFFFFFFF8
FFFFFFFFFFF8
0007FFFE0000
0001FFFC0000
0001FFFC0000
0000FFF00000
00003FE00000
00003FE00000
00001F800000
ENDCHAR
ENDFONT
